<?xml version="1.0" standalone="no"?><!DOCTYPE svg PUBLIC "-//W3C//DTD SVG 1.1//EN" "http://www.w3.org/Graphics/SVG/1.1/DTD/svg11.dtd"><svg t="1512481860114" class="icon" style="" viewBox="0 0 1024 1024" version="1.1" xmlns="http://www.w3.org/2000/svg" p-id="999" xmlns:xlink="http://www.w3.org/1999/xlink" width="4096" height="4096"><defs><style type="text/css"></style></defs><path d="M857.6 396.8h-76.8V256C780.8 108.8 659.2 6.4 512 6.4 364.8 6.4 243.2 108.8 243.2 256v134.4h-76.8c-38.4 0-64 32-64 64v486.4c0 38.4 32 64 64 64h691.2c38.4 0 64-32 64-64v-480c0-38.4-25.6-64-64-64z m-307.2 320v108.8c0 6.4-6.4 6.4-6.4 6.4h-57.6c-6.4 0-6.4-6.4-6.4-6.4V716.8c-32-12.8-51.2-38.4-51.2-70.4 0-44.8 38.4-83.2 83.2-83.2 44.8 0 83.2 38.4 83.2 83.2 0 32-19.2 57.6-44.8 70.4z m128-320H345.6V249.6c0-76.8 76.8-140.8 166.4-140.8 89.6 0 166.4 64 166.4 140.8v147.2z m0 0" fill="#409EFF" p-id="1000"></path></svg>